<?xml version="1.0" encoding="UTF-8" standalone="no"?>
<!DOCTYPE svg PUBLIC "-//W3C//DTD SVG 1.1//EN"
 "http://www.w3.org/Graphics/SVG/1.1/DTD/svg11.dtd">
<!-- Generated by graphviz version 14.1.0 (20251206.1807)
 -->
<!-- Title: dependency&#45;cruiser output Pages: 1 -->
<svg width="238pt" height="76pt"
 viewBox="0.00 0.00 238.00 76.00" xmlns="http://www.w3.org/2000/svg" xmlns:xlink="http://www.w3.org/1999/xlink">
<g id="graph0" class="graph" transform="scale(1 1) rotate(0) translate(4 72)">
<title>dependency&#45;cruiser output</title>
<polygon fill="white" stroke="none" points="-4,4 -4,-72 234,-72 234,4 -4,4"/>
<g id="clust1" class="cluster">
<title>cluster_src</title>
<path fill="#ffffff" stroke="black" stroke-width="2" d="M20,-8C20,-8 210,-8 210,-8 216,-8 222,-14 222,-20 222,-20 222,-48 222,-48 222,-54 216,-60 210,-60 210,-60 20,-60 20,-60 14,-60 8,-54 8,-48 8,-48 8,-20 8,-20 8,-14 14,-8 20,-8"/>
<text xml:space="preserve" text-anchor="middle" x="115" y="-47.45" font-family="Helvetica,sans-Serif" font-weight="bold" font-size="9.00">src</text>
</g>
<!-- src/index.test.ts -->
<g id="node1" class="node">
<title>src/index.test.ts</title>
<g id="a_node1"><a xlink:href="src/index.test.ts" xlink:title="index.test.ts">
<path fill="#ddfeff" stroke="black" d="M74.08,-33.88C74.08,-33.88 21.92,-33.88 21.92,-33.88 18.96,-33.88 16,-30.92 16,-27.96 16,-27.96 16,-22.04 16,-22.04 16,-19.08 18.96,-16.12 21.92,-16.12 21.92,-16.12 74.08,-16.12 74.08,-16.12 77.04,-16.12 80,-19.08 80,-22.04 80,-22.04 80,-27.96 80,-27.96 80,-30.92 77.04,-33.88 74.08,-33.88"/>
<text xml:space="preserve" text-anchor="start" x="24" y="-21.32" font-family="Helvetica,sans-Serif" font-size="9.00">index.test.ts</text>
</a>
</g>
</g>
<!-- src/index.ts -->
<g id="node2" class="node">
<title>src/index.ts</title>
<g id="a_node2"><a xlink:href="src/index.ts" xlink:title="index.ts">
<path fill="#ddfeff" stroke="black" d="M141.08,-33.88C141.08,-33.88 98.92,-33.88 98.92,-33.88 95.96,-33.88 93,-30.92 93,-27.96 93,-27.96 93,-22.04 93,-22.04 93,-19.08 95.96,-16.12 98.92,-16.12 98.92,-16.12 141.08,-16.12 141.08,-16.12 144.04,-16.12 147,-19.08 147,-22.04 147,-22.04 147,-27.96 147,-27.96 147,-30.92 144.04,-33.88 141.08,-33.88"/>
<text xml:space="preserve" text-anchor="start" x="104.25" y="-21.32" font-family="Helvetica,sans-Serif" font-size="9.00">index.ts</text>
</a>
</g>
</g>
<!-- src/index.test.ts&#45;&gt;src/index.ts -->
<g id="edge1" class="edge">
<title>src/index.test.ts&#45;&gt;src/index.ts</title>
<path fill="none" stroke="#000000" stroke-width="2" stroke-opacity="0.200000" d="M80.31,-25C81.46,-25 82.61,-25 83.77,-25"/>
<polygon fill="#000000" fill-opacity="0.200000" stroke="#000000" stroke-width="2" stroke-opacity="0.200000" points="83.5,-27.1 89.5,-25 83.5,-22.9 83.5,-27.1"/>
</g>
<!-- src/lexer.ts -->
<g id="node3" class="node">
<title>src/lexer.ts</title>
<g id="a_node3"><a xlink:href="src/lexer.ts" xlink:title="lexer.ts">
<path fill="#ddfeff" stroke="black" d="M208.08,-33.88C208.08,-33.88 165.92,-33.88 165.92,-33.88 162.96,-33.88 160,-30.92 160,-27.96 160,-27.96 160,-22.04 160,-22.04 160,-19.08 162.96,-16.12 165.92,-16.12 165.92,-16.12 208.08,-16.12 208.08,-16.12 211.04,-16.12 214,-19.08 214,-22.04 214,-22.04 214,-27.96 214,-27.96 214,-30.92 211.04,-33.88 208.08,-33.88"/>
<text xml:space="preserve" text-anchor="start" x="172.38" y="-21.32" font-family="Helvetica,sans-Serif" font-size="9.00">lexer.ts</text>
</a>
</g>
</g>
<!-- src/index.ts&#45;&gt;src/lexer.ts -->
<g id="edge2" class="edge">
<title>src/index.ts&#45;&gt;src/lexer.ts</title>
<path fill="none" stroke="#000000" stroke-width="2" stroke-opacity="0.200000" d="M147.44,-25C148.58,-25 149.74,-25 150.9,-25"/>
<polygon fill="#000000" fill-opacity="0.200000" stroke="#000000" stroke-width="2" stroke-opacity="0.200000" points="150.77,-27.1 156.77,-25 150.77,-22.9 150.77,-27.1"/>
</g>
</g>
</svg>
